<svg xmlns="http://www.w3.org/2000/svg" viewBox="0 0 240 47"><defs><style>.cls-1{fill:#1d1d1b;stroke:#fff;stroke-miterlimit:10;}.cls-2{fill:#fff;}</style></defs><title>xxx-Asset 4</title><g id="Layer_2" data-name="Layer 2"><g id="Layer_1-2" data-name="Layer 1"><rect class="cls-1" x="0.5" y="0.5" width="239" height="46"/><path class="cls-2" d="M22.79,20.5a2.48,2.48,0,0,0-2.16-1,1.26,1.26,0,0,0-1.42,1.26c0,.56.25,1,1,1.24l1.49.47c2.36.74,3,2,3,3.42,0,2.5-2,3.82-4.49,3.82s-3.94-1.24-4.46-2.2l1.85-1.58a2.64,2.64,0,0,0,2.61,1.44c1,0,1.61-.49,1.61-1.24s-.31-1-1.14-1.27l-1.47-.46c-2.29-.72-2.92-2-2.92-3.46,0-1.93,1.15-3.78,4.3-3.78a4.54,4.54,0,0,1,4,1.82Z"/><path class="cls-2" d="M29.14,25.23V29.5H26.35V17.33H30.8c2.88,0,4.52,1.37,4.52,4s-1.64,3.94-4.52,3.94Zm0-2.25h1.45c1.36,0,1.85-.65,1.85-1.69s-.49-1.71-1.85-1.71H29.14Z"/><path class="cls-2" d="M45.06,27.25V29.5H36.87V17.33H45v2.25H39.66V22.3H44.2v2.25H39.66v2.7Z"/><path class="cls-2" d="M51.63,27.34a2.46,2.46,0,0,0,2.09-1.4l2.1,1.33a4.6,4.6,0,0,1-4.3,2.41c-3.6,0-5.46-2.3-5.46-6.27s1.86-6.26,5.46-6.26a4.6,4.6,0,0,1,4.3,2.41l-2.1,1.33a2.46,2.46,0,0,0-2.09-1.4c-1.8,0-2.68,1.35-2.68,3.94S49.83,27.34,51.63,27.34Z"/><path class="cls-2" d="M57.19,17.33H60V29.5H57.19Z"/><path class="cls-2" d="M68.75,27H64.64l-.76,2.54h-3l4.18-12.17h3.17L72.47,29.5h-3Zm-3.43-2.25h2.76l-1.37-4.54Z"/><path class="cls-2" d="M80.82,27.25V29.5H73.41V17.33H76.2v9.92Z"/><path class="cls-2" d="M88.87,30.06v1.62h-7.2V30.06Z"/><path class="cls-2" d="M90.6,17.33h7.77v2.25h-5v3h4.15v2.25H93.39V29.5H90.6Z"/><path class="cls-2" d="M104.65,29.68c-3.88,0-5.29-2.72-5.29-6.25s1.37-6.28,5.33-6.28S110,19.88,110,23.43,108.51,29.68,104.65,29.68Zm0-2.34c1.95,0,2.45-1.6,2.45-3.91s-.52-3.94-2.41-3.94-2.45,1.6-2.45,3.94S102.66,27.34,104.65,27.34Z"/><path class="cls-2" d="M116.48,29.68c-3.89,0-5.29-2.72-5.29-6.25s1.37-6.28,5.33-6.28,5.27,2.73,5.27,6.28S120.33,29.68,116.48,29.68Zm0-2.34c2,0,2.45-1.6,2.45-3.91s-.52-3.94-2.41-3.94-2.45,1.6-2.45,3.94S114.48,27.34,116.48,27.34Z"/><path class="cls-2" d="M123.48,17.33h4c4.16,0,6.12,1.89,6.12,6.08s-2,6.09-6.12,6.09h-4Zm3.84,9.92c2.52,0,3.42-.92,3.42-3.84s-.9-3.83-3.42-3.83h-1v7.67Z"/><path class="cls-2" d="M142.08,30.06v1.62h-7.2V30.06Z"/><path class="cls-2" d="M146.59,25.23V29.5H143.8V17.33h4.45c2.88,0,4.52,1.37,4.52,4s-1.64,3.94-4.52,3.94Zm0-2.25H148c1.37,0,1.86-.65,1.86-1.69s-.49-1.71-1.86-1.71h-1.44Z"/><path class="cls-2" d="M154.32,17.33h4.78c2.94,0,4.51,1.4,4.51,3.69a3.51,3.51,0,0,1-2.67,3.46l2.86,5h-3.09l-2.54-4.75h-1.06V29.5h-2.8Zm4.48,2.25h-1.69V22.5h1.69c1.53,0,1.92-.54,1.92-1.48S160.33,19.58,158.8,19.58Z"/><path class="cls-2" d="M170.07,29.68c-3.89,0-5.3-2.72-5.3-6.25s1.37-6.28,5.33-6.28,5.28,2.73,5.28,6.28S173.92,29.68,170.07,29.68Zm0-2.34c1.94,0,2.45-1.6,2.45-3.91s-.53-3.94-2.42-3.94-2.45,1.6-2.45,3.94S168.07,27.34,170.07,27.34Z"/><path class="cls-2" d="M177.79,26.33a1.45,1.45,0,0,0,1.44,1c1,0,1.49-.59,1.49-2v-8h2.63v8.24a3.75,3.75,0,0,1-4.12,4.11,3.49,3.49,0,0,1-3.41-2.11Z"/><path class="cls-2" d="M193.63,27.25V29.5h-8.19V17.33h8.14v2.25h-5.35V22.3h4.53v2.25h-4.53v2.7Z"/><path class="cls-2" d="M200.2,27.34a2.46,2.46,0,0,0,2.09-1.4l2.1,1.33a4.6,4.6,0,0,1-4.3,2.41c-3.6,0-5.46-2.3-5.46-6.27s1.86-6.26,5.46-6.26a4.6,4.6,0,0,1,4.3,2.41l-2.1,1.33a2.46,2.46,0,0,0-2.09-1.4c-1.8,0-2.68,1.35-2.68,3.94S198.4,27.34,200.2,27.34Z"/><path class="cls-2" d="M214.17,17.33v2.25H211V29.5h-2.79V19.58h-3.13V17.33Z"/><path class="cls-2" d="M221.74,20.5a2.48,2.48,0,0,0-2.16-1,1.26,1.26,0,0,0-1.42,1.26c0,.56.25,1,1,1.24l1.49.47c2.36.74,3,2,3,3.42,0,2.5-2,3.82-4.48,3.82-2.67,0-4-1.24-4.47-2.2l1.85-1.58a2.64,2.64,0,0,0,2.62,1.44c1,0,1.6-.49,1.6-1.24s-.31-1-1.14-1.27l-1.47-.46c-2.29-.72-2.92-2-2.92-3.46,0-1.93,1.15-3.78,4.3-3.78a4.52,4.52,0,0,1,4,1.82Z"/></g></g></svg>